<svg xmlns="http://www.w3.org/2000/svg" viewBox="0 0 64 64" fill="none" aria-hidden="true">
  <rect width="64" height="64" rx="14" fill="#0f766e"/>
  <path fill="#ecfdf5" d="M32 12c-2.8 0-5 2.1-5.2 4.8-.1 1.1-.8 2-1.8 2.4-3.6 1.5-6.2 5-6.2 9.1 0 3.2 1.5 6 3.8 7.8-1.1 1.4-1.8 3.2-1.8 5.1 0 4.5 3.7 8.2 8.2 8.2 1.8 0 3.4-.6 4.8-1.5 1.3 1 3 1.5 4.8 1.5 4.5 0 8.2-3.7 8.2-8.2 0-1.9-.7-3.7-1.8-5.1 2.3-1.8 3.8-4.6 3.8-7.8 0-4.1-2.6-7.6-6.2-9.1-1-.4-1.7-1.3-1.8-2.4C37 14.1 34.8 12 32 12Z"/>
  <circle cx="24" cy="26" r="4" fill="#99f6e4"/>
  <circle cx="40" cy="26" r="4" fill="#99f6e4"/>
  <ellipse cx="32" cy="36" rx="3" ry="2" fill="#0d9488"/>
</svg>
